<svg width="24" height="24" viewBox="0 0 24 24" fill="none" xmlns="http://www.w3.org/2000/svg">
<path d="M21.9862 11.291C21.9862 15.83 17.9382 19.473 12.9862 19.473C12.3452 19.473 11.7212 19.41 11.1172 19.294" stroke="#AAACAE" stroke-width="1.5" stroke-linecap="round" stroke-linejoin="round"/>
<path d="M7.58533 17.826C5.40633 16.336 3.98633 13.974 3.98633 11.291" stroke="#AAACAE" stroke-width="1.5" stroke-linecap="round" stroke-linejoin="round"/>
<path d="M7.58558 17.8262C7.58458 18.6802 7.58658 19.8322 7.58658 21.0412" stroke="#AAACAE" stroke-width="1.5" stroke-linecap="round" stroke-linejoin="round"/>
<path d="M3.98633 11.2914C3.98633 6.75235 8.03433 3.11035 12.9863 3.11035C17.9383 3.11035 21.9863 6.75335 21.9863 11.2924" stroke="#AAACAE" stroke-width="1.5" stroke-linecap="round" stroke-linejoin="round"/>
<path d="M11.1159 19.29L7.58594 21.04" stroke="#AAACAE" stroke-width="1.5" stroke-linecap="round" stroke-linejoin="round"/>
<path d="M13.1631 11.3232C13.2607 11.4209 13.2607 11.5791 13.1631 11.6768C13.0655 11.7744 12.9072 11.7744 12.8096 11.6768C12.7119 11.5791 12.7119 11.4209 12.8096 11.3232C12.9072 11.2256 13.0655 11.2256 13.1631 11.3232" stroke="#AAACAE" stroke-width="1.5" stroke-linecap="round" stroke-linejoin="round"/>
<path d="M17.1631 11.3232C17.2607 11.4209 17.2607 11.5791 17.1631 11.6768C17.0655 11.7744 16.9072 11.7744 16.8096 11.6768C16.7119 11.5791 16.7119 11.4209 16.8096 11.3232C16.9072 11.2256 17.0655 11.2256 17.1631 11.3232" stroke="#AAACAE" stroke-width="1.5" stroke-linecap="round" stroke-linejoin="round"/>
<path d="M9.1631 11.3232C9.26074 11.4209 9.26074 11.5791 9.1631 11.6768C9.06547 11.7744 8.90718 11.7744 8.80955 11.6768C8.71192 11.5791 8.71192 11.4209 8.80955 11.3232C8.90718 11.2256 9.06547 11.2256 9.1631 11.3232" stroke="#AAACAE" stroke-width="1.5" stroke-linecap="round" stroke-linejoin="round"/>
</svg>
