<svg width="24" height="27" viewBox="0 0 24 27" fill="none" xmlns="http://www.w3.org/2000/svg">
<path d="M6.61353 18.4314C6.14208 18.963 5.49367 19.3279 4.87293 19.4606C4.36188 19.4711 4.15228 19.4189 3.76401 19.3842C2.24037 19.248 1.52394 18.1996 1.44116 16.6722C1.41466 16.1831 1.50471 15.7177 1.68579 15.3011C1.83429 14.9595 1.76867 14.5624 1.50745 14.2969C0.888095 13.6671 0.505859 12.8036 0.505859 11.8506C0.505859 10.8515 0.925734 9.95069 1.59854 9.3145C1.83272 9.09308 1.93317 8.76183 1.85416 8.44938C1.79429 8.21245 1.76234 7.96443 1.76234 7.70885C1.76234 6.65063 2.30593 5.7197 3.129 5.1792C3.32574 5.04999 3.46059 4.84834 3.51251 4.61878C3.81741 3.27072 4.51489 2.28007 5.95516 2.28007C5.97798 2.28007 6.00075 2.28031 6.02342 2.28081C6.03745 2.2811 6.04746 2.27035 6.06719 2.26456C6.30167 2.25838 6.52333 2.15729 6.689 1.98931C7.30061 1.36911 8.15027 0.984375 9.09023 0.984375C9.77432 0.984375 10.4106 1.18833 10.9421 1.53842C10.9792 1.56286 11.0178 1.58401 11.0574 1.60236C11.132 1.77196 11.2982 1.83325 11.4366 1.82928C11.5573 1.82579 11.7437 1.75076 11.8154 1.603C11.8553 1.58455 11.8938 1.56305 11.9311 1.53847C12.4627 1.18833 13.0989 0.984375 13.783 0.984375C14.7229 0.984375 15.5725 1.36911 16.1842 1.98936C16.3597 2.1673 16.5981 2.2704 16.8479 2.26491C16.8706 2.26441 16.8934 2.26417 16.9162 2.26417C18.3564 2.26417 19.5612 3.27082 19.8662 4.61883C19.9181 4.84839 20.053 5.05004 20.2497 5.17925C21.0727 5.71975 21.6164 6.65068 21.6164 7.7089C21.6164 7.96448 21.5844 8.2125 21.5245 8.44943C21.4456 8.76188 21.546 9.09313 21.7802 9.31455C22.453 9.95074 22.8728 10.8516 22.8728 11.8506C22.8728 13.0428 22.3817 14.4826 20.7134 15.342L19.4657 15.8727L6.61353 18.4314Z" fill="#00A79D"/>
<path d="M2.77296 7.46686C2.77296 7.72774 2.80481 7.98101 2.86497 8.22265C2.94384 8.54168 2.84324 8.87935 2.60915 9.10534C1.93625 9.75444 1.51667 10.674 1.51667 11.6932C1.51667 12.6659 1.89886 13.5471 2.51817 14.1896C2.77905 14.4606 2.84476 14.8656 2.69611 15.2144C2.51513 15.6396 2.42513 16.1142 2.45192 16.6132C2.52725 18.0394 3.53571 19.1718 4.87239 19.4604C4.50384 19.5373 4.1142 19.555 3.73044 19.5206C2.20724 19.3846 1.01769 18.1996 0.935248 16.6718C0.908453 16.183 0.998455 15.7173 1.17944 15.3008C1.32808 14.959 1.26237 14.5621 1.0015 14.2968C0.382186 13.6668 0 12.8033 0 11.8504C0 10.8514 0.419581 9.95054 1.09248 9.31405C1.32656 9.09263 1.42716 8.76148 1.3483 8.44908C1.28814 8.212 1.25629 7.96428 1.25629 7.70845C1.25629 6.65033 1.79973 5.71964 2.6228 5.17919C2.81943 5.04979 2.95444 4.84804 3.0065 4.61853C3.31135 3.27071 4.51606 2.26367 5.95638 2.26367C5.97915 2.26367 6.00187 2.26416 6.02464 2.2647C6.03877 2.26519 6.05246 2.26539 6.0666 2.26436C5.29511 2.67839 4.72031 3.42289 4.52313 4.31368C4.47106 4.54776 4.33606 4.75353 4.13942 4.88544C3.31645 5.43708 2.77296 6.387 2.77296 7.46686Z" fill="#00A79D"/>
<path d="M3.43941 12.9661C2.6905 9.40868 4.27151 5.82924 7.48393 4.25388C8.64437 3.68477 10.0315 3.7814 11.0871 4.52722C11.2146 4.61732 11.3357 4.67513 11.4364 4.67513C11.5254 4.67513 11.6307 4.62752 11.7423 4.55141C12.8205 3.8156 14.2008 3.675 15.374 4.24735C18.5965 5.81953 20.1835 9.40314 19.4334 12.9661L19.3621 13.243L3.55449 13.4559L3.43941 12.9661Z" fill="#00A79D"/>
<path d="M11.8147 1.60156L11.815 4.50138C11.7593 4.67873 11.5901 4.74773 11.4491 4.75249C11.3328 4.75646 11.1194 4.67162 11.0567 4.5054L11.0566 1.60176C11.2963 1.7135 11.5751 1.71325 11.8147 1.60156Z" fill="#00A79D"/>
<path d="M11.8149 4.50098V7.60607C11.8149 7.81537 11.6451 7.98521 11.4358 7.98521C11.2265 7.98521 11.0566 7.81537 11.0566 7.60607V4.505C11.2733 4.66886 11.5193 4.7568 11.8149 4.50098Z" fill="#00A79D"/>
<path d="M17.5104 12.5879H18.2852C18.9929 12.6009 19.5891 13.082 19.7242 13.7702C19.7437 13.8695 19.7524 13.9778 19.7517 14.0846C19.7517 15.57 18.5476 16.7741 17.0622 16.7741H5.80863C4.32326 16.7741 3.11914 15.57 3.11914 14.0846V14.0544C3.11914 13.9569 3.12866 13.8617 3.14682 13.7695C3.27942 13.096 3.87316 12.5879 4.58561 12.5879H5.57106H17.5104Z" fill="#FDD0BF"/>
<path d="M18.4781 24.3314L15.0209 23.7748C14.3348 23.6643 13.8304 23.0721 13.8304 22.3773L13.8305 21.9284L13.5597 21.2473L13.5692 18.376H9.3012L9.22509 22.6462C9.22509 23.3411 8.72066 23.9332 8.03456 24.0437L4.54311 24.4685C3.6084 24.619 2.92471 24.9884 2.48285 25.8151C2.42891 25.916 2.50272 26.0381 2.61711 26.0381L3.88591 26.1108H20.5253C20.6397 26.1108 20.7135 25.9887 20.6596 25.8878C20.2177 25.0611 19.4128 24.4819 18.4781 24.3314Z" fill="#FEDECF"/>
<path d="M13.8296 18.376L13.8295 21.9285C12.9336 22.4695 12.1415 22.7359 11.4368 22.7359C11.1394 22.7359 10.8265 22.6886 10.4968 22.5931C10.3016 22.5365 10.1062 22.6802 10.1062 22.8834V23.5609C10.1062 24.1565 9.67343 24.664 9.08547 24.7586L5.45819 25.3425C4.86013 25.439 4.31565 25.7105 3.88493 26.1109H2.34961C2.23483 26.1109 2.16156 25.9885 2.21515 25.8879C2.65701 25.0613 3.46182 24.482 4.39657 24.3314L7.85402 23.7747C8.54007 23.6646 9.0446 23.072 9.0446 22.3774V18.376L13.8296 18.376Z" fill="#FDD0BF"/>
<path d="M17.8842 12.7925C17.868 12.972 17.8473 13.1803 17.826 13.3208C17.8225 13.3441 17.819 13.3653 17.8154 13.384L17.3731 15.8238C17.1148 17.2495 16.3918 18.5497 15.3155 19.5204C14.1482 20.5724 12.6033 21.7246 11.4359 21.7246C10.2686 21.7246 8.72368 20.5724 7.55636 19.5204C6.48003 18.5497 5.75712 17.2495 5.4988 15.8238L5.05645 13.384C5.0534 13.3668 5.04987 13.3476 5.04683 13.3269C5.02509 13.1828 5.00487 12.9649 4.98922 12.7809C4.95786 12.4058 4.96443 12.0271 5.02362 11.6555C5.51499 8.5823 8.63019 6.34375 11.436 6.34375C14.2418 6.34375 17.3711 8.56713 17.8539 11.6555C17.9125 12.0312 17.9181 12.4139 17.8842 12.7925Z" fill="#FEDECF"/>
<path d="M11.3596 16.796C11.0199 16.796 10.6802 16.7332 10.3427 16.6077C10.1465 16.5347 10.0466 16.3164 10.1196 16.1201C10.1926 15.9239 10.4109 15.8239 10.6072 15.897C11.1135 16.0854 11.6059 16.0854 12.1122 15.897C12.3085 15.8239 12.5267 15.9238 12.5998 16.1201C12.6728 16.3164 12.5729 16.5347 12.3767 16.6077C12.0392 16.7332 11.6994 16.796 11.3596 16.796Z" fill="#00A79D"/>
<path d="M15.7824 12.0307C15.745 12.0307 15.7071 12.0251 15.6695 12.0134C14.8242 11.7502 13.8363 11.5417 12.9172 11.9919C12.7292 12.084 12.502 12.0063 12.4098 11.8183C12.3177 11.6302 12.3955 11.4031 12.5835 11.311C13.7482 10.7404 14.965 10.9998 15.895 11.2895C16.0949 11.3517 16.2065 11.5643 16.1442 11.7642C16.0937 11.9266 15.944 12.0307 15.7824 12.0307Z" fill="#00A79D"/>
<path d="M7.09399 12.0305C6.93239 12.0305 6.78267 11.9264 6.73212 11.764C6.6698 11.5641 6.78139 11.3516 6.98132 11.2893C8.75185 10.7377 9.68106 11.0111 10.2928 11.3108C10.4809 11.4029 10.5586 11.63 10.4665 11.8181C10.3743 12.0061 10.1472 12.0839 9.95916 11.9918C9.04026 11.5415 8.05216 11.7499 7.20681 12.0133C7.16932 12.0249 7.13129 12.0305 7.09399 12.0305Z" fill="#00A79D"/>
<path d="M12.2414 18.8328C11.9806 18.8328 11.7096 18.7807 11.4298 18.6762C11.3672 18.6529 11.2986 18.6529 11.2363 18.6762C10.6431 18.8976 10.0893 18.8843 9.5898 18.6367C9.40214 18.5437 9.32544 18.3163 9.41843 18.1286C9.51138 17.941 9.73883 17.8641 9.92649 17.9573C10.2393 18.1122 10.5712 18.115 10.9711 17.9658C11.2044 17.8786 11.4614 17.8786 11.695 17.9658C12.0947 18.115 12.4267 18.1123 12.7395 17.9573C12.9271 17.8642 13.1546 17.941 13.2476 18.1286C13.3406 18.3163 13.2639 18.5437 13.0762 18.6367C12.8124 18.7674 12.5333 18.8328 12.2414 18.8328Z" fill="#00A79D"/>
<path d="M8.55393 14.3663C8.16301 14.3663 7.77204 14.2929 7.38386 14.1461C7.18796 14.072 7.08922 13.8532 7.16328 13.6573C7.23738 13.4614 7.45635 13.3627 7.65205 13.4367C8.25904 13.6662 8.84896 13.6662 9.4559 13.4367C9.65166 13.3627 9.87063 13.4614 9.94468 13.6573C10.0187 13.8532 9.91999 14.072 9.72409 14.1461C9.33587 14.2929 8.9449 14.3663 8.55393 14.3663Z" fill="#00A79D"/>
<path d="M14.3196 14.3663C13.9286 14.3663 13.5377 14.2929 13.1495 14.1461C12.9536 14.072 12.8548 13.8532 12.9289 13.6573C13.003 13.4614 13.222 13.3627 13.4177 13.4367C14.0246 13.6662 14.6145 13.6662 15.2215 13.4367C15.4172 13.3627 15.6363 13.4614 15.7103 13.6573C15.7844 13.8532 15.6856 14.072 15.4897 14.1461C15.1015 14.2929 14.7105 14.3663 14.3196 14.3663Z" fill="#00A79D"/>
<path d="M23.7775 25.8879C23.6294 26.036 23.4353 26.1099 23.2411 26.1099C23.047 26.1099 22.8528 26.036 22.7047 25.8879L21.1426 24.3257L21.2786 23.4902L22.2154 23.2529L23.7775 24.8151C24.0733 25.1114 24.0733 25.5917 23.7775 25.8879Z" fill="#00A79D"/>
<path d="M22.2137 23.2532L21.141 24.326L20.5945 23.7795L20.4252 23.3287L17.6476 20.8327C17.3518 20.5364 17.3518 20.0561 17.6476 19.7599C17.9439 19.4641 18.4242 19.4641 18.7204 19.7599L21.2341 22.5151L21.6672 22.7067L22.2137 23.2532Z" fill="#F8F6FA"/>
<path d="M21.6672 22.7067C21.3542 23.1061 20.9938 23.4666 20.5944 23.7795L18.1976 21.3827L17.6476 20.8327C17.3518 20.5364 17.3518 20.0561 17.6476 19.7599C17.9439 19.4641 18.4242 19.4641 18.7204 19.7599L19.2704 20.3099L21.6672 22.7067Z" fill="#F3ECFB"/>
<path d="M16.7697 23.518C19.3306 23.518 21.4067 21.442 21.4067 18.8811C21.4067 16.3202 19.3306 14.2441 16.7697 14.2441C14.2088 14.2441 12.1328 16.3202 12.1328 18.8811C12.1328 21.442 14.2088 23.518 16.7697 23.518Z" fill="#FDD0BF"/>
<path d="M15.5111 18.502C15.3017 18.5057 15.135 18.6784 15.1387 18.8878L15.1586 20.0212C15.1596 20.073 15.1354 20.1225 15.0941 20.1537L13.762 21.1598C13.5949 21.286 13.5617 21.5238 13.688 21.6909C13.7625 21.7896 13.876 21.8415 13.9908 21.8415C14.0704 21.8415 14.1507 21.8166 14.219 21.7649L15.5511 20.7588C15.7853 20.582 15.922 20.3012 15.9169 20.0078L15.8969 18.8744C15.8932 18.665 15.7215 18.4999 15.5111 18.502Z" fill="#00A79D"/>
<path d="M20.5274 17.6434L18.9937 17.3663C18.6663 17.307 18.3315 17.4297 18.1197 17.6863L17.409 18.5476C17.2757 18.7091 17.2986 18.9481 17.4601 19.0813C17.5308 19.1396 17.6162 19.1681 17.7012 19.1681C17.8104 19.1681 17.9189 19.1211 17.9939 19.0303L18.7046 18.169C18.742 18.1237 18.801 18.102 18.8588 18.1125L20.3925 18.3896C20.5984 18.4269 20.7958 18.29 20.8331 18.084C20.8704 17.8779 20.7335 17.6806 20.5274 17.6434Z" fill="#00A79D"/>
<path d="M18.2295 20.3032C18.0932 20.1443 17.8538 20.1259 17.6948 20.2622C17.5359 20.3985 17.5175 20.6379 17.6538 20.7969L18.7964 22.1292C18.8714 22.2167 18.9776 22.2616 19.0844 22.2616C19.1718 22.2616 19.2596 22.2315 19.3311 22.1703C19.49 22.0339 19.5084 21.7946 19.3721 21.6356L18.2295 20.3032Z" fill="#00A79D"/>
<path d="M16.8609 15.0698C16.8443 14.8611 16.662 14.7054 16.4529 14.7219C16.2441 14.7385 16.0884 14.9211 16.105 15.1299L16.1983 16.3048L15.1412 16.9221C14.9603 17.0277 14.8993 17.2599 15.0049 17.4407C15.0754 17.5615 15.2023 17.6287 15.3327 17.6287C15.3976 17.6287 15.4634 17.6121 15.5235 17.577L16.2649 17.144L16.3085 17.6922C16.3243 17.8907 16.4903 18.0414 16.6861 18.0414C16.6962 18.0414 16.7063 18.041 16.7166 18.0401C16.9253 18.0235 17.0811 17.8409 17.0645 17.6321L16.8609 15.0698Z" fill="#00A79D"/>
<path d="M16.7697 14.2441C14.2086 14.2441 12.1328 16.3199 12.1328 18.881C12.1328 21.4421 14.2086 23.5179 16.7697 23.5179C19.3308 23.5179 21.4066 21.4421 21.4066 18.881C21.4066 16.3199 19.3308 14.2441 16.7697 14.2441ZM16.7697 21.7626C15.1807 21.7626 13.8881 20.4699 13.8881 18.881C13.8881 17.2921 15.1808 15.9994 16.7697 15.9994C18.3586 15.9994 19.6513 17.2921 19.6513 18.881C19.6513 20.4699 18.3587 21.7626 16.7697 21.7626Z" fill="#00A79D"/>
<path d="M15.0128 21.1645L14.2191 21.7641C14.1504 21.8162 14.0705 21.841 13.9906 21.841C13.8758 21.841 13.7626 21.7889 13.6878 21.6903C13.5619 21.523 13.5947 21.2854 13.7621 21.159L14.4734 20.6221C14.6286 20.8258 14.8101 21.0083 15.0128 21.1645Z" fill="#00A79D"/>
<path d="M16.8606 15.0702L16.9349 16.0045C16.8798 16.0009 16.8237 15.9994 16.7675 15.9994C16.5658 15.9994 16.3687 16.0201 16.1785 16.0601L16.1047 15.1299C16.0881 14.9211 16.2438 14.7385 16.4526 14.7219C16.6619 14.7057 16.8439 14.8614 16.8606 15.0702Z" fill="#00A79D"/>
<path d="M20.8335 18.084C20.7966 18.2902 20.599 18.4272 20.3932 18.3899L19.5782 18.2427C19.511 17.946 19.3977 17.6664 19.2461 17.4121L20.5281 17.6436C20.734 17.6811 20.8709 17.8783 20.8335 18.084Z" fill="#00A79D"/>
<path d="M19.3707 21.6354C19.5071 21.7947 19.489 22.0338 19.3297 22.1703C19.2584 22.2314 19.1705 22.2618 19.083 22.2618C18.9764 22.2618 18.8702 22.2168 18.7954 22.1294L18.168 21.3978C18.3909 21.2735 18.5956 21.1203 18.7772 20.9434L19.3707 21.6354Z" fill="#00A79D"/>
<path d="M16.7687 13.5723C15.3152 13.5723 14.0015 14.1531 13.0429 15.0993C12.978 15.1923 12.9186 15.2547 12.8505 15.3301C11.9999 16.2714 11.6562 17.5119 11.6562 18.8805C11.6562 21.8122 13.837 24.0041 16.7687 24.0041C18.4887 24.0041 19.9848 23.3585 20.9547 22.0901C21.0284 21.9938 21.1046 21.9081 21.1989 21.8057C21.7538 20.967 22.0769 19.9615 22.0769 18.8805C22.0769 15.9489 19.7003 13.5723 16.7687 13.5723ZM16.7687 22.6722C14.6747 22.6722 12.977 20.9745 12.977 18.8805C12.977 16.7865 14.6746 15.0889 16.7687 15.0889C18.8627 15.0889 20.5603 16.7865 20.5603 18.8805C20.5603 20.9745 18.8626 22.6722 16.7687 22.6722Z" fill="#00A79D"/>
<path d="M21.1993 21.8053C20.2494 23.2416 18.62 24.1885 16.7692 24.1885C13.8375 24.1885 11.4609 21.8119 11.4609 18.8802C11.4609 17.3984 12.0681 16.0588 13.0469 15.0957C12.4918 15.9344 12.1687 16.9395 12.1687 18.0208C12.1687 20.9525 14.5453 23.3291 17.477 23.3291C18.9274 23.3291 20.2408 22.7477 21.1993 21.8053Z" fill="#00A79D"/>
</svg>
