<svg width="92" height="92" viewBox="0 0 92 92" fill="none" xmlns="http://www.w3.org/2000/svg">
<g filter="url(#filter0_d_1026_10680)">
<circle cx="46" cy="42" r="28" fill="#00A79D"/>
<path d="M47.1866 33.8398H36.8133C34.5333 33.8398 32.6666 35.7065 32.6666 37.9865V53.1332C32.6666 55.0665 34.0533 55.8932 35.7466 54.9465L40.9866 52.0265C41.5466 51.7198 42.4533 51.7198 43 52.0265L48.2399 54.9465C49.9333 55.8932 51.3199 55.0665 51.3199 53.1332V37.9865C51.3333 35.7065 49.4666 33.8398 47.1866 33.8398Z" stroke="white" stroke-width="1.5" stroke-linecap="round" stroke-linejoin="round"/>
<path d="M51.3333 37.9865V53.1332C51.3333 55.0665 49.9466 55.8798 48.2533 54.9465L43.0133 52.0265C42.4533 51.7198 41.5466 51.7198 40.9866 52.0265L35.7466 54.9465C34.0533 55.8798 32.6666 55.0665 32.6666 53.1332V37.9865C32.6666 35.7065 34.5333 33.8398 36.8133 33.8398H47.1866C49.4666 33.8398 51.3333 35.7065 51.3333 37.9865Z" stroke="white" stroke-width="1.5" stroke-linecap="round" stroke-linejoin="round"/>
<path d="M59.3333 32.8132V47.9598C59.3333 49.8932 57.9466 50.7065 56.2533 49.7732L51.3333 47.0265V37.9865C51.3333 35.7065 49.4666 33.8398 47.1866 33.8398H40.6666V32.8132C40.6666 30.5332 42.5333 28.6665 44.8133 28.6665H55.1866C57.4666 28.6665 59.3333 30.5332 59.3333 32.8132Z" stroke="white" stroke-width="1.5" stroke-linecap="round" stroke-linejoin="round"/>
</g>
<defs>
<filter id="filter0_d_1026_10680" x="0" y="0" width="92" height="92" filterUnits="userSpaceOnUse" color-interpolation-filters="sRGB">
<feFlood flood-opacity="0" result="BackgroundImageFix"/>
<feColorMatrix in="SourceAlpha" type="matrix" values="0 0 0 0 0 0 0 0 0 0 0 0 0 0 0 0 0 0 127 0" result="hardAlpha"/>
<feOffset dy="4"/>
<feGaussianBlur stdDeviation="9"/>
<feComposite in2="hardAlpha" operator="out"/>
<feColorMatrix type="matrix" values="0 0 0 0 0 0 0 0 0 0.654902 0 0 0 0 0.615686 0 0 0 0.12 0"/>
<feBlend mode="normal" in2="BackgroundImageFix" result="effect1_dropShadow_1026_10680"/>
<feBlend mode="normal" in="SourceGraphic" in2="effect1_dropShadow_1026_10680" result="shape"/>
</filter>
</defs>
</svg>
