<svg width="24" height="24" viewBox="0 0 24 24" fill="none" xmlns="http://www.w3.org/2000/svg">
<path d="M8.76047 22.2705H8.89047C13.3305 22.2705 15.4705 20.5205 15.8405 16.6005C15.8805 16.1905 15.5805 15.8205 15.1605 15.7805C14.7605 15.7405 14.3805 16.0505 14.3405 16.4605C14.0505 19.6005 12.5705 20.7705 8.88047 20.7705H8.75047C4.68047 20.7705 3.24047 19.3305 3.24047 15.2605V8.74047C3.24047 4.67047 4.68047 3.23047 8.75047 3.23047H8.88047C12.5905 3.23047 14.0705 4.42047 14.3405 7.62047C14.3905 8.03047 14.7405 8.34047 15.1605 8.30047C15.5805 8.27047 15.8805 7.90047 15.8505 7.49047C15.5105 3.51047 13.3605 1.73047 8.89047 1.73047H8.76047C3.85047 1.73047 1.75047 3.83047 1.75047 8.74047V15.2605C1.75047 20.1705 3.85047 22.2705 8.76047 22.2705Z" fill="#FFFDFD"/>
<path d="M8.99988 12.75H20.3799C20.7899 12.75 21.1299 12.41 21.1299 12C21.1299 11.59 20.7899 11.25 20.3799 11.25H8.99988C8.58988 11.25 8.24988 11.59 8.24988 12C8.24988 12.41 8.58988 12.75 8.99988 12.75Z" fill="#FFFDFD"/>
<path d="M18.1496 16.0998C18.3396 16.0998 18.5296 16.0298 18.6796 15.8798L22.0296 12.5298C22.3196 12.2398 22.3196 11.7598 22.0296 11.4698L18.6796 8.11984C18.3896 7.82984 17.9096 7.82984 17.6196 8.11984C17.3296 8.40984 17.3296 8.88984 17.6196 9.17984L20.4396 11.9998L17.6196 14.8198C17.3296 15.1098 17.3296 15.5898 17.6196 15.8798C17.7596 16.0298 17.9596 16.0998 18.1496 16.0998Z" fill="#FFFDFD"/>
</svg>
