<svg width="17" height="21" viewBox="0 0 17 21" fill="none" xmlns="http://www.w3.org/2000/svg">
<path d="M14.4501 20.5093H13.6001V17.1094C13.6001 15.4165 14.1845 14.0583 14.8031 12.6202C15.4654 11.0817 16.1499 9.4903 16.1499 7.33443C16.1499 3.81931 13.2901 0.959427 9.77495 0.959427C6.25983 0.959427 3.39995 3.81931 3.39995 7.33443C3.39995 7.40524 3.38205 7.47554 3.34807 7.53806L0.909195 12.0093H2.97505C3.20955 12.0093 3.39995 12.1995 3.39995 12.4345V14.9844C3.39995 15.2121 3.48192 15.4005 3.65805 15.5763C3.84845 15.7667 4.08839 15.8344 4.25 15.8344H5.9501C6.1846 15.8344 6.375 16.0243 6.375 16.2593V20.5093H5.52495V16.6845H4.25C3.82043 16.6845 3.37401 16.4949 3.0565 16.1774C2.72032 15.8412 2.5499 15.4396 2.5499 14.9844V12.8594H0.424896C0.190399 12.8594 0 12.6695 0 12.4345V12.0093C0 11.9385 0.0178985 11.8682 0.0518799 11.8057L2.55093 7.22418C2.60982 3.29091 5.82767 0.109375 9.77495 0.109375C13.7591 0.109375 17 3.35031 17 7.33443C17 9.66539 16.2472 11.414 15.5839 12.9566C15.0008 14.3115 14.4501 15.5916 14.4501 17.1094V20.5093Z" fill="#00A79D"/>
<path d="M6.16255 11.3722C6.0536 11.3722 5.94492 11.3304 5.86191 11.2477C4.82249 10.208 4.25 8.81813 4.25 7.33462C4.25 5.85086 4.82249 4.46125 5.86191 3.42158C6.02818 3.25531 6.29692 3.25531 6.46294 3.42158L10.0756 7.03398C10.2416 7.20025 10.2416 7.46899 10.0756 7.63501L6.46294 11.2477C6.38019 11.3304 6.27124 11.3722 6.16255 11.3722ZM6.17604 4.33674C5.47955 5.17253 5.10005 6.2218 5.10005 7.33462C5.10005 8.44719 5.47955 9.49646 6.17604 10.3325L9.17418 7.33462L6.17604 4.33674Z" fill="#00A79D"/>
<path d="M9.77501 12.0098C8.5107 12.0098 7.33224 11.5278 6.45703 10.6528L7.05806 10.0518C7.77296 10.7662 8.73767 11.1597 9.77501 11.1597C11.6056 11.1597 13.2421 9.86557 13.6001 8.14238V7.75977H14.4502V8.18492C14.4502 8.2119 14.4476 8.23965 14.4419 8.26637C14.0248 10.4005 12.0178 12.0098 9.77501 12.0098Z" fill="#00A79D"/>
<path d="M14.025 6.90918H12.3252C12.1441 6.90918 11.983 6.79453 11.9239 6.6241C11.6476 5.8306 10.7042 5.20934 9.77501 5.20934V4.35928C10.9532 4.35928 12.1148 5.07237 12.6061 6.05939H13.4683C12.9366 4.57484 11.4354 3.50923 9.77501 3.50923C8.73767 3.50923 7.77296 3.90274 7.05806 4.61739L6.45703 4.01636C7.33224 3.14114 8.5107 2.65918 9.77501 2.65918C12.0178 2.65918 14.0247 4.26875 14.4419 6.40257C14.4665 6.52708 14.4336 6.65652 14.3531 6.75458C14.2725 6.85237 14.1521 6.90918 14.025 6.90918Z" fill="#00A79D"/>
<path d="M9.77477 10.3099C9.01498 10.3099 8.25468 9.98567 7.68945 9.42018L8.29022 8.81941C8.69748 9.22641 9.23859 9.45987 9.77477 9.45987C10.6788 9.45987 11.5968 8.87129 11.8998 8.10866V7.75977H12.7498V8.18492C12.7498 8.23239 12.7418 8.2796 12.726 8.32474C12.333 9.4565 11.0637 10.3099 9.77477 10.3099Z" fill="#00A79D"/>
<path d="M7.65039 12.8594H8.50044V13.7094H7.65039V12.8594Z" fill="#00A79D"/>
<path d="M9.34961 12.8594H10.1997V13.7094H9.34961V12.8594Z" fill="#00A79D"/>
<path d="M11.0508 12.8594H11.9008V13.7094H11.0508V12.8594Z" fill="#00A79D"/>
</svg>
