<svg width="32" height="32" viewBox="0 0 32 32" fill="none" xmlns="http://www.w3.org/2000/svg">
<path d="M17.1866 7.83984H6.81327C4.53327 7.83984 2.66663 9.70649 2.66663 11.9865V27.1332C2.66663 29.0665 4.05329 29.8932 5.74662 28.9465L10.9866 26.0265C11.5466 25.7198 12.4533 25.7198 13 26.0265L18.2399 28.9465C19.9333 29.8932 21.3199 29.0665 21.3199 27.1332V11.9865C21.3333 9.70649 19.4666 7.83984 17.1866 7.83984Z" stroke="white" stroke-width="1.5" stroke-linecap="round" stroke-linejoin="round"/>
<path d="M21.3333 11.9865V27.1332C21.3333 29.0665 19.9466 29.8798 18.2533 28.9465L13.0133 26.0265C12.4533 25.7198 11.5466 25.7198 10.9866 26.0265L5.74662 28.9465C4.05329 29.8798 2.66663 29.0665 2.66663 27.1332V11.9865C2.66663 9.70649 4.53327 7.83984 6.81327 7.83984H17.1866C19.4666 7.83984 21.3333 9.70649 21.3333 11.9865Z" stroke="white" stroke-width="1.5" stroke-linecap="round" stroke-linejoin="round"/>
<path d="M29.3333 6.81315V21.9598C29.3333 23.8932 27.9466 24.7065 26.2533 23.7732L21.3333 21.0265V11.9865C21.3333 9.70649 19.4666 7.83984 17.1866 7.83984H10.6666V6.81315C10.6666 4.53315 12.5333 2.6665 14.8133 2.6665H25.1866C27.4666 2.6665 29.3333 4.53315 29.3333 6.81315Z" stroke="white" stroke-width="1.5" stroke-linecap="round" stroke-linejoin="round"/>
</svg>
