<svg width="19" height="24" viewBox="0 0 19 24" fill="none" xmlns="http://www.w3.org/2000/svg">
<path fill-rule="evenodd" clip-rule="evenodd" d="M6.13909 23.9845C5.29555 23.9845 4.35829 23.0003 3.23357 20.8446C1.26531 17.0956 1.59335 14.4244 1.82767 12.503C1.92139 11.4251 2.01512 10.5816 1.68708 9.97234C1.54649 9.69116 1.35904 9.40998 1.21845 9.12881C0.515496 7.95722 0 7.01996 0 4.81738C0 3.6458 0.28118 2.66167 0.796676 1.91186C1.21845 1.25577 1.87453 0.740276 2.76493 0.365369C4.2177 -0.384443 5.62359 0.177916 6.8889 0.646549C7.4044 0.834002 7.87303 1.02146 8.34167 1.11518C9.88815 1.49009 10.8254 1.11518 11.9033 0.693412C12.4188 0.505959 12.9811 0.271643 13.6372 0.131053C15.3712 -0.243854 16.9176 0.224779 17.8549 1.39636C18.511 2.19304 18.9328 3.27089 18.9796 4.5362C19.0734 5.75465 18.839 7.01996 18.3704 8.19154C17.9486 9.17567 17.6206 9.6443 17.4331 9.92548C17.1051 10.3941 17.0582 10.441 17.3394 12.8779C17.7612 16.4395 16.2147 21.5007 14.1527 23.3284C13.5904 23.8439 13.028 24.0313 12.5125 23.8907C12.0439 23.7033 11.7158 23.2347 11.5752 22.5786C11.4815 22.0631 11.5284 21.3133 11.5752 20.5634C11.6221 20.1885 11.6221 19.8605 11.6221 19.5793C11.7158 15.6897 10.638 14.2369 9.7007 14.1432C8.8103 14.0963 7.73244 15.1273 7.49813 17.0487C7.45126 17.5173 7.45126 18.5952 7.45126 19.6262C7.49813 21.7819 7.45126 22.8129 7.21695 23.1878C6.8889 23.8439 6.46713 23.9845 6.13909 23.9845ZM4.26456 0.646549C3.88965 0.646549 3.46788 0.740276 3.09298 0.927729C3.04611 0.927729 3.04611 0.927729 3.04611 0.927729C1.4059 1.7244 0.656086 2.84912 0.656086 4.81738C0.656086 6.8325 1.07786 7.62918 1.78081 8.80076C1.92139 9.08194 2.10885 9.36312 2.24944 9.69116C2.71807 10.4878 2.57748 11.3782 2.43689 12.5498C2.24944 14.4244 1.92139 17.0018 3.79593 20.5634H3.84279C5.15496 23.0472 5.85791 23.3284 6.13909 23.3284C6.32654 23.3284 6.514 23.1878 6.65459 22.9066V22.8597C6.84204 22.5786 6.79518 20.7978 6.79518 19.6262C6.79518 18.5483 6.79518 17.5173 6.84204 16.955C6.98263 15.9708 7.35754 15.0804 7.87303 14.4244C8.38853 13.7683 9.09148 13.4402 9.74756 13.4871C10.4974 13.5808 11.1535 14.1432 11.6221 15.0804C12.1376 16.1583 12.325 17.6579 12.2782 19.5793C12.2782 19.9074 12.2782 20.2354 12.2313 20.6103C12.1845 21.2664 12.1376 22.0162 12.2313 22.4848C12.325 22.9066 12.5125 23.1878 12.7468 23.2347C12.9811 23.3284 13.356 23.1878 13.7309 22.8597C15.6055 21.1727 17.1051 16.2989 16.6833 12.9716C16.4022 10.441 16.4022 10.2535 16.8708 9.55057C17.1051 9.26939 17.3863 8.84762 17.7612 7.91036C18.6985 5.75465 18.511 3.22403 17.3863 1.81813C16.5427 0.834002 15.2774 0.459096 13.7778 0.787139C13.1686 0.927729 12.6531 1.11518 12.1376 1.30264C11.0129 1.77127 9.93502 2.19304 8.20108 1.77127C7.68558 1.67754 7.17008 1.44322 6.65459 1.25577C5.85791 0.927729 5.06124 0.646549 4.26456 0.646549Z" fill="#00A79D"/>
<path fill-rule="evenodd" clip-rule="evenodd" d="M4.49766 8.8002C4.40393 8.8002 4.26334 8.75333 4.21648 8.61274C4.07589 8.33156 3.9353 8.09725 3.79471 7.86293C3.23235 6.97253 2.95117 6.41017 2.95117 4.95741C2.95117 3.73896 3.27921 3.1766 4.31021 2.66111C4.77884 2.42679 5.38806 2.61424 5.99729 2.8017C6.2316 2.89542 6.46592 2.98915 6.7471 3.08288C7.16887 3.27033 7.59064 3.41092 8.01241 3.50464C8.19986 3.55151 8.29359 3.6921 8.24672 3.87955C8.24672 4.067 8.05927 4.20759 7.87182 4.16073C7.40318 4.067 6.93455 3.87955 6.51278 3.6921C6.27847 3.59837 5.99729 3.50464 5.76297 3.41092C5.52865 3.36405 4.87257 3.08288 4.63825 3.22346C3.79471 3.64523 3.60726 3.97328 3.60726 4.95741C3.60726 6.26958 3.84157 6.69135 4.35707 7.53489C4.49766 7.7692 4.63825 8.00352 4.77884 8.33156C4.87257 8.47215 4.8257 8.65961 4.68511 8.75333C4.63825 8.8002 4.54452 8.8002 4.49766 8.8002Z" fill="#00A79D"/>
<path fill-rule="evenodd" clip-rule="evenodd" d="M12.3727 12.4093C12.1383 12.4093 11.8572 12.3624 11.6229 12.3156C11.576 12.3156 11.576 12.3156 11.576 12.3156C10.6387 12.0344 9.93577 11.472 9.56087 10.6753C9.04537 9.55062 9.23282 8.19159 10.1232 6.69196C10.545 6.03588 11.1542 5.37979 11.7634 4.95802C12.5601 4.44253 13.4037 4.25507 14.1535 4.48939C15.4656 4.91116 16.1217 6.22333 16.028 8.28531C15.9811 9.36317 15.5594 10.8159 14.5752 11.6126C14.0129 12.1281 13.1693 12.4093 12.3727 12.4093ZM11.7634 11.6595C12.5601 11.8938 13.5442 11.6595 14.1535 11.144C14.997 10.441 15.3251 9.17572 15.3719 8.28531C15.4188 7.06687 15.2313 5.52038 13.966 5.14547C12.7007 4.77057 11.3885 5.89529 10.6856 7.06687C10.1701 7.95727 9.60773 9.22258 10.1701 10.3942C10.4513 11.0034 11.0136 11.4252 11.7634 11.6595Z" fill="#00A79D"/>
<path fill-rule="evenodd" clip-rule="evenodd" d="M12.4174 10.8163C12.3237 10.8163 12.1831 10.8163 12.0425 10.7695C12.0425 10.7695 12.0425 10.7695 11.9957 10.7695C11.1053 10.4883 10.6366 9.73847 10.8241 8.75435C11.1053 7.44217 12.4174 5.89568 13.4953 6.03627C14.0108 6.08314 14.62 6.55177 14.5263 8.28571C14.4794 9.59789 13.7296 10.254 13.6359 10.3477C13.5422 10.4414 13.0735 10.8163 12.4174 10.8163ZM12.1831 10.1134C12.7455 10.254 13.2141 9.87906 13.2141 9.87906V9.8322C13.261 9.8322 13.8702 9.36357 13.8702 8.28571C13.9171 7.30158 13.7296 6.73922 13.4016 6.69236C12.8392 6.59863 11.7145 7.77022 11.4802 8.89494C11.3396 9.55102 11.5739 9.92593 12.1831 10.1134Z" fill="#00A79D"/>
</svg>
